%TF.GenerationSoftware,KiCad,Pcbnew,8.0.1*%
%TF.CreationDate,2024-05-25T23:06:58+03:00*%
%TF.ProjectId,PiStorm2k_v2.1,50695374-6f72-46d3-926b-5f76322e312e,rev?*%
%TF.SameCoordinates,Original*%
%TF.FileFunction,Profile,NP*%
%FSLAX46Y46*%
G04 Gerber Fmt 4.6, Leading zero omitted, Abs format (unit mm)*
G04 Created by KiCad (PCBNEW 8.0.1) date 2024-05-25 23:06:58*
%MOMM*%
%LPD*%
G01*
G04 APERTURE LIST*
%TA.AperFunction,Profile*%
%ADD10C,0.254000*%
%TD*%
G04 APERTURE END LIST*
D10*
X178440460Y-89798470D02*
X113721320Y-89773120D01*
X81946220Y-137758910D02*
G75*
G02*
X81311190Y-137123910I-20J635010D01*
G01*
X213878290Y-99662640D02*
X179583490Y-99662640D01*
X213873460Y-128619830D02*
X213873460Y-99662040D01*
X106888690Y-41284500D02*
X121519090Y-41284500D01*
X192944220Y-137128990D02*
G75*
G02*
X192309220Y-137764020I-635020J-10D01*
G01*
X81310890Y-123793860D02*
X78643890Y-121126860D01*
X78643890Y-69529300D02*
X106888690Y-41284500D01*
X121544460Y-48244120D02*
X121544460Y-41309900D01*
X192943890Y-128619830D02*
X213873460Y-128619830D01*
X179583490Y-99637240D02*
X179608890Y-91246270D01*
X113086320Y-56702270D02*
X121544460Y-48244120D01*
X192943890Y-137128830D02*
X192943890Y-128619830D01*
X213878290Y-99662640D02*
X179583490Y-99662640D01*
X179608890Y-91246270D02*
X178440460Y-89798470D01*
X113086320Y-88680920D02*
X113086320Y-56702270D01*
X81310890Y-137123750D02*
X81310890Y-123793860D01*
X78643890Y-121126860D02*
X78643890Y-69529300D01*
X81946250Y-137763990D02*
X192308920Y-137763990D01*
X113721320Y-89773120D02*
X113086320Y-88680920D01*
M02*
