%TF.GenerationSoftware,KiCad,Pcbnew,8.0.1*%
%TF.CreationDate,2024-05-25T23:06:58+03:00*%
%TF.ProjectId,PiStorm2k_v2.1,50695374-6f72-46d3-926b-5f76322e312e,rev?*%
%TF.SameCoordinates,Original*%
%TF.FileFunction,Soldermask,Top*%
%TF.FilePolarity,Negative*%
%FSLAX46Y46*%
G04 Gerber Fmt 4.6, Leading zero omitted, Abs format (unit mm)*
G04 Created by KiCad (PCBNEW 8.0.1) date 2024-05-25 23:06:58*
%MOMM*%
%LPD*%
G01*
G04 APERTURE LIST*
G04 Aperture macros list*
%AMRoundRect*
0 Rectangle with rounded corners*
0 $1 Rounding radius*
0 $2 $3 $4 $5 $6 $7 $8 $9 X,Y pos of 4 corners*
0 Add a 4 corners polygon primitive as box body*
4,1,4,$2,$3,$4,$5,$6,$7,$8,$9,$2,$3,0*
0 Add four circle primitives for the rounded corners*
1,1,$1+$1,$2,$3*
1,1,$1+$1,$4,$5*
1,1,$1+$1,$6,$7*
1,1,$1+$1,$8,$9*
0 Add four rect primitives between the rounded corners*
20,1,$1+$1,$2,$3,$4,$5,0*
20,1,$1+$1,$4,$5,$6,$7,0*
20,1,$1+$1,$6,$7,$8,$9,0*
20,1,$1+$1,$8,$9,$2,$3,0*%
G04 Aperture macros list end*
%ADD10R,1.500000X1.000000*%
%ADD11RoundRect,0.135000X-0.135000X-0.185000X0.135000X-0.185000X0.135000X0.185000X-0.135000X0.185000X0*%
%ADD12RoundRect,0.140000X0.170000X-0.140000X0.170000X0.140000X-0.170000X0.140000X-0.170000X-0.140000X0*%
%ADD13RoundRect,0.140000X-0.140000X-0.170000X0.140000X-0.170000X0.140000X0.170000X-0.140000X0.170000X0*%
%ADD14R,1.700000X1.700000*%
%ADD15O,1.700000X1.700000*%
%ADD16R,1.000000X1.000000*%
%ADD17RoundRect,0.140000X-0.170000X0.140000X-0.170000X-0.140000X0.170000X-0.140000X0.170000X0.140000X0*%
%ADD18RoundRect,0.019360X0.222640X-0.867640X0.222640X0.867640X-0.222640X0.867640X-0.222640X-0.867640X0*%
%ADD19RoundRect,0.140000X0.140000X0.170000X-0.140000X0.170000X-0.140000X-0.170000X0.140000X-0.170000X0*%
%ADD20R,1.600000X7.540000*%
%ADD21R,1.600000X7.539998*%
%ADD22R,1.599998X7.539998*%
%ADD23RoundRect,0.030700X0.276300X-0.856300X0.276300X0.856300X-0.276300X0.856300X-0.276300X-0.856300X0*%
%ADD24RoundRect,0.102000X-1.075000X0.475000X-1.075000X-0.475000X1.075000X-0.475000X1.075000X0.475000X0*%
%ADD25RoundRect,0.102000X-1.075000X1.625000X-1.075000X-1.625000X1.075000X-1.625000X1.075000X1.625000X0*%
%ADD26RoundRect,0.019360X0.862640X0.222640X-0.862640X0.222640X-0.862640X-0.222640X0.862640X-0.222640X0*%
%ADD27RoundRect,0.019360X-0.222640X0.862640X-0.222640X-0.862640X0.222640X-0.862640X0.222640X0.862640X0*%
%ADD28RoundRect,0.135000X-0.185000X0.135000X-0.185000X-0.135000X0.185000X-0.135000X0.185000X0.135000X0*%
%ADD29C,1.524000*%
%ADD30RoundRect,0.135000X0.185000X-0.135000X0.185000X0.135000X-0.185000X0.135000X-0.185000X-0.135000X0*%
%ADD31RoundRect,0.225000X0.250000X-0.225000X0.250000X0.225000X-0.250000X0.225000X-0.250000X-0.225000X0*%
%ADD32RoundRect,0.225000X-0.250000X0.225000X-0.250000X-0.225000X0.250000X-0.225000X0.250000X0.225000X0*%
%ADD33RoundRect,0.030700X-0.276300X0.856300X-0.276300X-0.856300X0.276300X-0.856300X0.276300X0.856300X0*%
%ADD34C,2.750000*%
%ADD35R,1.750000X1.750000*%
%ADD36C,1.750000*%
G04 APERTURE END LIST*
D10*
%TO.C,TCK*%
X168940000Y-98940000D03*
X168940000Y-100240000D03*
X168940000Y-101540000D03*
%TD*%
D11*
%TO.C,R1*%
X135616300Y-99797540D03*
X136636300Y-99797540D03*
%TD*%
D12*
%TO.C,C13*%
X140568290Y-116242040D03*
X140568290Y-115282040D03*
%TD*%
D13*
%TO.C,C8*%
X129310000Y-124130000D03*
X130270000Y-124130000D03*
%TD*%
D14*
%TO.C,IPL2-0*%
X138620000Y-127520000D03*
D15*
X141160000Y-127520000D03*
X143700000Y-127520000D03*
%TD*%
D10*
%TO.C,TDI*%
X139892500Y-98590000D03*
X139892500Y-99890000D03*
X139892500Y-101190000D03*
%TD*%
D16*
%TO.C,P83*%
X113380000Y-126860000D03*
%TD*%
D13*
%TO.C,C10*%
X127008290Y-104922040D03*
X127968290Y-104922040D03*
%TD*%
D12*
%TO.C,C9*%
X136778290Y-116392040D03*
X136778290Y-115432040D03*
%TD*%
D16*
%TO.C,P82*%
X115810000Y-125450000D03*
%TD*%
D14*
%TO.C,PWR*%
X176630000Y-101290000D03*
D15*
X176630000Y-103830000D03*
X176630000Y-106370000D03*
X176630000Y-108910000D03*
%TD*%
D12*
%TO.C,C4*%
X111820520Y-123616610D03*
X111820520Y-122656610D03*
%TD*%
D17*
%TO.C,C15*%
X166658290Y-109282040D03*
X166658290Y-110242040D03*
%TD*%
D18*
%TO.C,U5*%
X153558290Y-111262040D03*
X154058290Y-111262040D03*
X154558290Y-111262040D03*
X155058290Y-111262040D03*
X155558290Y-111262040D03*
X156058290Y-111262040D03*
X156558290Y-111262040D03*
X157058290Y-111262040D03*
X157558290Y-111262040D03*
X158058290Y-111262040D03*
X158558290Y-111262040D03*
X159058290Y-111262040D03*
X159558290Y-111262040D03*
X160058290Y-111262040D03*
X160558290Y-111262040D03*
X161058290Y-111262040D03*
X161558290Y-111262040D03*
X162058290Y-111262040D03*
X162558290Y-111262040D03*
X163058290Y-111262040D03*
X163558290Y-111262040D03*
X164058290Y-111262040D03*
X164558290Y-111262040D03*
X165058290Y-111262040D03*
X165058290Y-103822040D03*
X164558290Y-103822040D03*
X164058290Y-103822040D03*
X163558290Y-103822040D03*
X163058290Y-103822040D03*
X162558290Y-103822040D03*
X162058290Y-103822040D03*
X161558290Y-103822040D03*
X161058290Y-103822040D03*
X160558290Y-103822040D03*
X160058290Y-103822040D03*
X159558290Y-103822040D03*
X159058290Y-103822040D03*
X158558290Y-103822040D03*
X158058290Y-103822040D03*
X157558290Y-103822040D03*
X157058290Y-103822040D03*
X156558290Y-103822040D03*
X156058290Y-103822040D03*
X155558290Y-103822040D03*
X155058290Y-103822040D03*
X154558290Y-103822040D03*
X154058290Y-103822040D03*
X153558290Y-103822040D03*
%TD*%
D19*
%TO.C,C11*%
X123328290Y-104892040D03*
X122368290Y-104892040D03*
%TD*%
D10*
%TO.C,TDO*%
X147360000Y-98670000D03*
X147360000Y-99970000D03*
X147360000Y-101270000D03*
%TD*%
D16*
%TO.C,P81*%
X117380000Y-123220000D03*
%TD*%
D10*
%TO.C,BOSS*%
X178210000Y-123190000D03*
X178210000Y-121890000D03*
%TD*%
D14*
%TO.C,JTAG*%
X172930000Y-101310000D03*
D15*
X172930000Y-103850000D03*
X172930000Y-106390000D03*
X172930000Y-108930000D03*
%TD*%
D17*
%TO.C,C3*%
X112064660Y-112595010D03*
X112064660Y-113555010D03*
%TD*%
D12*
%TO.C,C2*%
X83188290Y-120722040D03*
X83188290Y-119762040D03*
%TD*%
D17*
%TO.C,C14*%
X166598290Y-123222040D03*
X166598290Y-124182040D03*
%TD*%
D14*
%TO.C,H2*%
X90750000Y-94730000D03*
D15*
X93290000Y-94730000D03*
%TD*%
D14*
%TO.C,H4*%
X106800000Y-94720000D03*
D15*
X109340000Y-94720000D03*
%TD*%
D20*
%TO.C,Zorro II / A(B) Co-Processor*%
X190500000Y-134010001D03*
X187960000Y-134010001D03*
X185420000Y-134010001D03*
X182880000Y-134010001D03*
X180340000Y-134010001D03*
X177800000Y-134010001D03*
X175260000Y-134010001D03*
X172720000Y-134010001D03*
X170180000Y-134010001D03*
D21*
X167640000Y-134010000D03*
D20*
X165100000Y-134010001D03*
D21*
X162560000Y-134010000D03*
D20*
X160020000Y-134010001D03*
X157480000Y-134010001D03*
X154940000Y-134010001D03*
X152400000Y-134010001D03*
D21*
X149860000Y-134010000D03*
D20*
X147320000Y-134010001D03*
X144780000Y-134010001D03*
D21*
X142240000Y-134010000D03*
X139700000Y-134010000D03*
D20*
X137160000Y-134010001D03*
X134620000Y-134010001D03*
D21*
X132080000Y-134010000D03*
D20*
X129540000Y-134010001D03*
X127000000Y-134010001D03*
D22*
X124460001Y-134010000D03*
X121920001Y-134010000D03*
D20*
X119380000Y-134010001D03*
X116840000Y-134010001D03*
X114300000Y-134010001D03*
D22*
X111760001Y-134010000D03*
D20*
X109220000Y-134010001D03*
X106680000Y-134010001D03*
X104140000Y-134010001D03*
X101600000Y-134010001D03*
X99060000Y-134010001D03*
X96520000Y-134010001D03*
X93980000Y-134010001D03*
X91440000Y-134010001D03*
D22*
X88900001Y-134010000D03*
D20*
X86360000Y-134010001D03*
X83820000Y-134010001D03*
%TD*%
D23*
%TO.C,U6*%
X141558290Y-121472040D03*
X142208290Y-121472040D03*
X142858290Y-121472040D03*
X143508290Y-121472040D03*
X144158290Y-121472040D03*
X144808290Y-121472040D03*
X145458290Y-121472040D03*
X146108290Y-121472040D03*
X146758290Y-121472040D03*
X147408290Y-121472040D03*
X148058290Y-121472040D03*
X148708290Y-121472040D03*
X148708290Y-115732040D03*
X148058290Y-115732040D03*
X147408290Y-115732040D03*
X146758290Y-115732040D03*
X146108290Y-115732040D03*
X145458290Y-115732040D03*
X144808290Y-115732040D03*
X144158290Y-115732040D03*
X143508290Y-115732040D03*
X142858290Y-115732040D03*
X142208290Y-115732040D03*
X141558290Y-115732040D03*
%TD*%
D24*
%TO.C,U11*%
X183378290Y-101372040D03*
X183378290Y-103672040D03*
X183378290Y-105972040D03*
D25*
X189178290Y-103672040D03*
%TD*%
D14*
%TO.C,H3*%
X99400000Y-94730000D03*
D15*
X101940000Y-94730000D03*
%TD*%
D11*
%TO.C,R2*%
X135626300Y-101387540D03*
X136646300Y-101387540D03*
%TD*%
D26*
%TO.C,U7*%
X134758290Y-120502040D03*
X134758290Y-120002040D03*
X134758290Y-119502040D03*
X134758290Y-119002040D03*
X134758290Y-118502040D03*
X134758290Y-118002040D03*
X134758290Y-117502040D03*
X134758290Y-117002040D03*
X134758290Y-116502040D03*
X134758290Y-116002040D03*
X134758290Y-115502040D03*
X134758290Y-115002040D03*
X134758290Y-114502040D03*
X134758290Y-114002040D03*
X134758290Y-113502040D03*
X134758290Y-113002040D03*
X134758290Y-112502040D03*
X134758290Y-112002040D03*
X134758290Y-111502040D03*
X134758290Y-111002040D03*
X134758290Y-110502040D03*
X134758290Y-110002040D03*
X134758290Y-109502040D03*
X134758290Y-109002040D03*
X134758290Y-108502040D03*
D27*
X133078290Y-106822040D03*
X132578290Y-106822040D03*
X132078290Y-106822040D03*
X131578290Y-106822040D03*
X131078290Y-106822040D03*
X130578290Y-106822040D03*
X130078290Y-106822040D03*
X129578290Y-106822040D03*
X129078290Y-106822040D03*
X128578290Y-106822040D03*
X128078290Y-106822040D03*
X127578290Y-106822040D03*
X127078290Y-106822040D03*
X126578290Y-106822040D03*
X126078290Y-106822040D03*
X125578290Y-106822040D03*
X125078290Y-106822040D03*
X124578290Y-106822040D03*
X124078290Y-106822040D03*
X123578290Y-106822040D03*
X123078290Y-106822040D03*
X122578290Y-106822040D03*
X122078290Y-106822040D03*
X121578290Y-106822040D03*
X121078290Y-106822040D03*
D26*
X119398290Y-108502040D03*
X119398290Y-109002040D03*
X119398290Y-109502040D03*
X119398290Y-110002040D03*
X119398290Y-110502040D03*
X119398290Y-111002040D03*
X119398290Y-111502040D03*
X119398290Y-112002040D03*
X119398290Y-112502040D03*
X119398290Y-113002040D03*
X119398290Y-113502040D03*
X119398290Y-114002040D03*
X119398290Y-114502040D03*
X119398290Y-115002040D03*
X119398290Y-115502040D03*
X119398290Y-116002040D03*
X119398290Y-116502040D03*
X119398290Y-117002040D03*
X119398290Y-117502040D03*
X119398290Y-118002040D03*
X119398290Y-118502040D03*
X119398290Y-119002040D03*
X119398290Y-119502040D03*
X119398290Y-120002040D03*
X119398290Y-120502040D03*
D27*
X121078290Y-122182040D03*
X121578290Y-122182040D03*
X122078290Y-122182040D03*
X122578290Y-122182040D03*
X123078290Y-122182040D03*
X123578290Y-122182040D03*
X124078290Y-122182040D03*
X124578290Y-122182040D03*
X125078290Y-122182040D03*
X125578290Y-122182040D03*
X126078290Y-122182040D03*
X126578290Y-122182040D03*
X127078290Y-122182040D03*
X127578290Y-122182040D03*
X128078290Y-122182040D03*
X128578290Y-122182040D03*
X129078290Y-122182040D03*
X129578290Y-122182040D03*
X130078290Y-122182040D03*
X130578290Y-122182040D03*
X131078290Y-122182040D03*
X131578290Y-122182040D03*
X132078290Y-122182040D03*
X132578290Y-122182040D03*
X133078290Y-122182040D03*
%TD*%
D28*
%TO.C,R4*%
X177070000Y-125340000D03*
X177070000Y-126360000D03*
%TD*%
D12*
%TO.C,C1*%
X83248290Y-107332040D03*
X83248290Y-106372040D03*
%TD*%
D18*
%TO.C,U1*%
X85338290Y-110322040D03*
X85838290Y-110322040D03*
X86338290Y-110322040D03*
X86838290Y-110322040D03*
X87338290Y-110322040D03*
X87838290Y-110322040D03*
X88338290Y-110322040D03*
X88838290Y-110322040D03*
X89338290Y-110322040D03*
X89838290Y-110322040D03*
X90338290Y-110322040D03*
X90838290Y-110322040D03*
X91338290Y-110322040D03*
X91838290Y-110322040D03*
X92338290Y-110322040D03*
X92838290Y-110322040D03*
X93338290Y-110322040D03*
X93838290Y-110322040D03*
X94338290Y-110322040D03*
X94838290Y-110322040D03*
X95338290Y-110322040D03*
X95838290Y-110322040D03*
X96338290Y-110322040D03*
X96838290Y-110322040D03*
X96838290Y-102882040D03*
X96338290Y-102882040D03*
X95838290Y-102882040D03*
X95338290Y-102882040D03*
X94838290Y-102882040D03*
X94338290Y-102882040D03*
X93838290Y-102882040D03*
X93338290Y-102882040D03*
X92838290Y-102882040D03*
X92338290Y-102882040D03*
X91838290Y-102882040D03*
X91338290Y-102882040D03*
X90838290Y-102882040D03*
X90338290Y-102882040D03*
X89838290Y-102882040D03*
X89338290Y-102882040D03*
X88838290Y-102882040D03*
X88338290Y-102882040D03*
X87838290Y-102882040D03*
X87338290Y-102882040D03*
X86838290Y-102882040D03*
X86338290Y-102882040D03*
X85838290Y-102882040D03*
X85338290Y-102882040D03*
%TD*%
D29*
%TO.C,J1*%
X205968290Y-121812040D03*
X203468290Y-121812040D03*
X200968290Y-121812040D03*
X198468290Y-121812040D03*
%TD*%
D30*
%TO.C,R5*%
X189908290Y-109062040D03*
X189908290Y-108042040D03*
%TD*%
D31*
%TO.C,C19*%
X180608290Y-105177040D03*
X180608290Y-103627040D03*
%TD*%
D30*
%TO.C,R3*%
X110038290Y-104542040D03*
X110038290Y-103522040D03*
%TD*%
D14*
%TO.C,BJ*%
X174590000Y-121770000D03*
D15*
X174590000Y-124310000D03*
%TD*%
D24*
%TO.C,U10*%
X183263290Y-112182040D03*
X183263290Y-114482040D03*
X183263290Y-116782040D03*
D25*
X189063290Y-114482040D03*
%TD*%
D10*
%TO.C,TMS*%
X142780000Y-98700000D03*
X142780000Y-100000000D03*
X142780000Y-101300000D03*
%TD*%
D18*
%TO.C,U8*%
X153538290Y-125652040D03*
X154038290Y-125652040D03*
X154538290Y-125652040D03*
X155038290Y-125652040D03*
X155538290Y-125652040D03*
X156038290Y-125652040D03*
X156538290Y-125652040D03*
X157038290Y-125652040D03*
X157538290Y-125652040D03*
X158038290Y-125652040D03*
X158538290Y-125652040D03*
X159038290Y-125652040D03*
X159538290Y-125652040D03*
X160038290Y-125652040D03*
X160538290Y-125652040D03*
X161038290Y-125652040D03*
X161538290Y-125652040D03*
X162038290Y-125652040D03*
X162538290Y-125652040D03*
X163038290Y-125652040D03*
X163538290Y-125652040D03*
X164038290Y-125652040D03*
X164538290Y-125652040D03*
X165038290Y-125652040D03*
X165038290Y-118212040D03*
X164538290Y-118212040D03*
X164038290Y-118212040D03*
X163538290Y-118212040D03*
X163038290Y-118212040D03*
X162538290Y-118212040D03*
X162038290Y-118212040D03*
X161538290Y-118212040D03*
X161038290Y-118212040D03*
X160538290Y-118212040D03*
X160038290Y-118212040D03*
X159538290Y-118212040D03*
X159038290Y-118212040D03*
X158538290Y-118212040D03*
X158038290Y-118212040D03*
X157538290Y-118212040D03*
X157038290Y-118212040D03*
X156538290Y-118212040D03*
X156038290Y-118212040D03*
X155538290Y-118212040D03*
X155038290Y-118212040D03*
X154538290Y-118212040D03*
X154038290Y-118212040D03*
X153538290Y-118212040D03*
%TD*%
D16*
%TO.C,P78*%
X115230000Y-123240000D03*
%TD*%
D31*
%TO.C,C18*%
X182568290Y-109797040D03*
X182568290Y-108247040D03*
%TD*%
D32*
%TO.C,C16*%
X182648290Y-118867040D03*
X182648290Y-120417040D03*
%TD*%
D18*
%TO.C,U2*%
X85358290Y-124592040D03*
X85858290Y-124592040D03*
X86358290Y-124592040D03*
X86858290Y-124592040D03*
X87358290Y-124592040D03*
X87858290Y-124592040D03*
X88358290Y-124592040D03*
X88858290Y-124592040D03*
X89358290Y-124592040D03*
X89858290Y-124592040D03*
X90358290Y-124592040D03*
X90858290Y-124592040D03*
X91358290Y-124592040D03*
X91858290Y-124592040D03*
X92358290Y-124592040D03*
X92858290Y-124592040D03*
X93358290Y-124592040D03*
X93858290Y-124592040D03*
X94358290Y-124592040D03*
X94858290Y-124592040D03*
X95358290Y-124592040D03*
X95858290Y-124592040D03*
X96358290Y-124592040D03*
X96858290Y-124592040D03*
X96858290Y-117152040D03*
X96358290Y-117152040D03*
X95858290Y-117152040D03*
X95358290Y-117152040D03*
X94858290Y-117152040D03*
X94358290Y-117152040D03*
X93858290Y-117152040D03*
X93358290Y-117152040D03*
X92858290Y-117152040D03*
X92358290Y-117152040D03*
X91858290Y-117152040D03*
X91358290Y-117152040D03*
X90858290Y-117152040D03*
X90358290Y-117152040D03*
X89858290Y-117152040D03*
X89358290Y-117152040D03*
X88858290Y-117152040D03*
X88358290Y-117152040D03*
X87858290Y-117152040D03*
X87358290Y-117152040D03*
X86858290Y-117152040D03*
X86358290Y-117152040D03*
X85858290Y-117152040D03*
X85358290Y-117152040D03*
%TD*%
D33*
%TO.C,U4*%
X110508290Y-117452040D03*
X109858290Y-117452040D03*
X109208290Y-117452040D03*
X108558290Y-117452040D03*
X107908290Y-117452040D03*
X107258290Y-117452040D03*
X106608290Y-117452040D03*
X105958290Y-117452040D03*
X105308290Y-117452040D03*
X104658290Y-117452040D03*
X104008290Y-117452040D03*
X103358290Y-117452040D03*
X103358290Y-123192040D03*
X104008290Y-123192040D03*
X104658290Y-123192040D03*
X105308290Y-123192040D03*
X105958290Y-123192040D03*
X106608290Y-123192040D03*
X107258290Y-123192040D03*
X107908290Y-123192040D03*
X108558290Y-123192040D03*
X109208290Y-123192040D03*
X109858290Y-123192040D03*
X110508290Y-123192040D03*
%TD*%
D10*
%TO.C,D-BOSS*%
X167850000Y-128230000D03*
X167850000Y-126930000D03*
%TD*%
D17*
%TO.C,C12*%
X117218290Y-112212040D03*
X117218290Y-113172040D03*
%TD*%
D19*
%TO.C,C7*%
X126888290Y-124132040D03*
X125928290Y-124132040D03*
%TD*%
D31*
%TO.C,C17*%
X180058290Y-115997040D03*
X180058290Y-114447040D03*
%TD*%
D10*
%TO.C,7MHz*%
X170800000Y-119890000D03*
X170800000Y-118590000D03*
%TD*%
D14*
%TO.C,H1*%
X82100000Y-94730000D03*
D15*
X84640000Y-94730000D03*
%TD*%
D33*
%TO.C,U3*%
X110518290Y-107192040D03*
X109868290Y-107192040D03*
X109218290Y-107192040D03*
X108568290Y-107192040D03*
X107918290Y-107192040D03*
X107268290Y-107192040D03*
X106618290Y-107192040D03*
X105968290Y-107192040D03*
X105318290Y-107192040D03*
X104668290Y-107192040D03*
X104018290Y-107192040D03*
X103368290Y-107192040D03*
X103368290Y-112932040D03*
X104018290Y-112932040D03*
X104668290Y-112932040D03*
X105318290Y-112932040D03*
X105968290Y-112932040D03*
X106618290Y-112932040D03*
X107268290Y-112932040D03*
X107918290Y-112932040D03*
X108568290Y-112932040D03*
X109218290Y-112932040D03*
X109868290Y-112932040D03*
X110518290Y-112932040D03*
%TD*%
D34*
%TO.C,RPi*%
X117728290Y-45172040D03*
X117728290Y-94172040D03*
X175728290Y-45172040D03*
X175728290Y-94172040D03*
D35*
X122598290Y-92902040D03*
D36*
X122598290Y-95442040D03*
X125138290Y-92902040D03*
X125138290Y-95442040D03*
X127678290Y-92902040D03*
X127678290Y-95442040D03*
X130218290Y-92902040D03*
X130218290Y-95442040D03*
X132758290Y-92902040D03*
X132758290Y-95442040D03*
X135298290Y-92902040D03*
X135298290Y-95442040D03*
X137838290Y-92902040D03*
X137838290Y-95442040D03*
X140378290Y-92902040D03*
X140378290Y-95442040D03*
X142918290Y-92902040D03*
X142918290Y-95442040D03*
X145458290Y-92902040D03*
X145458290Y-95442040D03*
X147998290Y-92902040D03*
X147998290Y-95442040D03*
X150538290Y-92902040D03*
X150538290Y-95442040D03*
X153078290Y-92902040D03*
X153078290Y-95442040D03*
X155618290Y-92902040D03*
X155618290Y-95442040D03*
X158158290Y-92902040D03*
X158158290Y-95442040D03*
X160698290Y-92902040D03*
X160698290Y-95442040D03*
X163238290Y-92902040D03*
X163238290Y-95442040D03*
X165778290Y-92902040D03*
X165778290Y-95442040D03*
X168318290Y-92902040D03*
X168318290Y-95442040D03*
X170858290Y-92902040D03*
X170858290Y-95442040D03*
%TD*%
M02*
