M48
; DRILL file {KiCad 8.0.1} date 2024-05-25T23:07:10+0300
; FORMAT={-:-/ absolute / inch / decimal}
; #@! TF.CreationDate,2024-05-25T23:07:10+03:00
; #@! TF.GenerationSoftware,Kicad,Pcbnew,8.0.1
; #@! TF.FileFunction,Plated,1,4,PTH
FMAT,2
INCH
; #@! TA.AperFunction,Plated,PTH,ViaDrill
T1C0.0118
; #@! TA.AperFunction,Plated,PTH,ViaDrill
T2C0.0236
; #@! TA.AperFunction,Plated,PTH,ViaDrill
T3C0.0394
; #@! TA.AperFunction,Plated,PTH,ComponentDrill
T4C0.0394
; #@! TA.AperFunction,Plated,PTH,ComponentDrill
T5C0.0400
%
G90
G05
T1
X3.2098Y-4.0457
X3.2503Y-4.282
X3.2503Y-4.6619
X3.2948Y-5.0863
X3.3216Y-4.9544
X3.3358Y-4.5895
X3.346Y-4.3997
X3.3606Y-3.978
X3.3751Y-4.5643
X3.3897Y-4.9855
X3.4003Y-4.5379
X3.4082Y-4.8162
X3.4196Y-4.6682
X3.42Y-3.9934
X3.4208Y-4.2918
X3.4267Y-4.5143
X3.4329Y-4.9627
X3.4401Y-5.0123
X3.4495Y-4.7808
X3.4519Y-4.4835
X3.4665Y-4.8261
X3.4771Y-3.9934
X3.4771Y-4.6646
X3.4795Y-4.2875
X3.4826Y-5.0379
X3.4952Y-4.4383
X3.5157Y-4.7678
X3.5255Y-4.4083
X3.5283Y-4.9737
X3.5302Y-4.2887
X3.5365Y-3.9934
X3.5365Y-4.6646
X3.5582Y-4.2426
X3.5862Y-4.2835
X3.5968Y-4.3977
X3.6251Y-4.4182
X3.6334Y-4.6666
X3.6358Y-3.9934
X3.6358Y-4.2832
X3.6468Y-4.4489
X3.6468Y-4.8123
X3.6771Y-4.4934
X3.6799Y-5.0237
X3.6921Y-4.6662
X3.6956Y-4.2926
X3.696Y-3.9926
X3.698Y-4.9892
X3.7054Y-4.4733
X3.7314Y-5.0103
X3.7365Y-4.5087
X3.746Y-4.9658
X3.7535Y-3.9879
X3.7566Y-4.2938
X3.761Y-4.8347
X3.7665Y-4.5328
X3.7728Y-4.6682
X3.7956Y-4.5591
X3.8011Y-4.9843
X3.8047Y-3.9572
X3.8369Y-4.5883
X3.8385Y-4.3674
X3.8417Y-4.115
X3.8472Y-4.9198
X3.8602Y-5.0957
X3.8728Y-4.9587
X3.8956Y-4.0013
X3.9846Y-4.1123
X4.0208Y-4.1835
X4.0688Y-4.0028
X4.096Y-4.6977
X4.0999Y-4.167
X4.1699Y-3.9939
X4.1708Y-4.1395
X4.1786Y-4.6813
X4.1964Y-4.5735
X4.1994Y-4.1527
X4.2031Y-4.528
X4.2624Y-4.5715
X4.2728Y-4.1505
X4.3095Y-4.1715
X4.374Y-4.1102
X4.3826Y-4.9166
X4.396Y-5.0898
X4.3991Y-4.5765
X4.4Y-4.21
X4.4059Y-4.6229
X4.4452Y-4.4706
X4.4692Y-5.0883
X4.4846Y-4.593
X4.4846Y-4.6245
X4.4964Y-4.9276
X4.4988Y-4.2131
X4.5209Y-4.4846
X4.5212Y-4.6056
X4.5224Y-4.1072
X4.5311Y-4.3874
X4.5314Y-5.0898
X4.561Y-4.532
X4.5748Y-4.3898
X4.5948Y-5.0879
X4.6055Y-4.5744
X4.6137Y-4.5154
X4.6413Y-5.0808
X4.6705Y-4.1295
X4.6944Y-4.0154
X4.6992Y-5.069
X4.6992Y-4.9309
X4.7192Y-4.206
X4.7464Y-5.0983
X4.7559Y-4.58
X4.7602Y-4.6358
X4.7724Y-4.3701
X4.7767Y-4.9303
X4.7953Y-4.0106
X4.8Y-4.9913
X4.8058Y-4.4072
X4.8066Y-4.3044
X4.8176Y-5.0891
X4.8299Y-3.8587
X4.8358Y-5.0186
X4.8413Y-4.2891
X4.8432Y-3.9832
X4.8468Y-4.4568
X4.8488Y-4.9894
X4.852Y-4.8804
X4.8531Y-4.3815
X4.8547Y-4.0835
X4.8693Y-3.8598
X4.8763Y-4.2792
X4.8854Y-3.9673
X4.8869Y-4.4654
X4.894Y-5.0418
X4.907Y-4.2658
X4.911Y-4.4312
X4.9169Y-4.1209
X4.918Y-5.0851
X4.9204Y-4.3828
X4.9287Y-5.0395
X4.9378Y-3.8799
X4.9562Y-5.0851
X4.963Y-4.5429
X4.9696Y-4.4658
X4.9716Y-4.2761
X4.9909Y-4.974
X4.9969Y-3.8803
X4.998Y-4.0209
X5.0039Y-4.3765
X5.0054Y-3.9666
X5.0063Y-4.5327
X5.0132Y-4.7492
X5.0271Y-5.0887
X5.0404Y-4.5067
X5.044Y-5.0576
X5.0555Y-4.5495
X5.0709Y-4.6635
X5.0759Y-5.0855
X5.0771Y-4.102
X5.0771Y-4.2635
X5.0807Y-4.7547
X5.0823Y-4.7169
X5.0837Y-4.446
X5.0937Y-4.5465
X5.098Y-4.3591
X5.1009Y-4.1226
X5.1078Y-3.9969
X5.1078Y-4.695
X5.1113Y-4.2627
X5.1114Y-4.4652
X5.1263Y-5.0772
X5.128Y-4.5488
X5.1346Y-4.6391
X5.1375Y-4.152
X5.1425Y-4.0895
X5.156Y-4.914
X5.1611Y-4.0367
X5.168Y-4.6233
X5.179Y-4.387
X5.1893Y-5.0867
X5.1932Y-4.5977
X5.1952Y-4.5383
X5.1956Y-4.0603
X5.2012Y-4.876
X5.2031Y-3.6
X5.209Y-5.0622
X5.2126Y-4.9465
X5.2149Y-4.3993
X5.2236Y-4.5721
X5.23Y-4.326
X5.2333Y-5.0901
X5.2389Y-4.5422
X5.2437Y-4.9929
X5.2495Y-4.4131
X5.2535Y-4.8965
X5.2653Y-5.0895
X5.2843Y-3.885
X5.2869Y-4.8139
X5.2972Y-4.1449
X5.3058Y-4.1761
X5.31Y-3.9877
X5.3134Y-4.8719
X5.3165Y-4.9472
X5.3579Y-4.5949
X5.3582Y-4.1654
X5.3641Y-4.4698
X5.3771Y-4.2599
X5.3873Y-4.7776
X5.4111Y-4.0411
X5.4129Y-4.754
X5.4247Y-4.8422
X5.4279Y-4.4871
X5.4385Y-4.7225
X5.4451Y-4.0424
X5.4508Y-5.1146
X5.4574Y-4.6942
X5.4575Y-4.6197
X5.463Y-4.3492
X5.4771Y-4.667
X5.4881Y-4.5182
X5.4984Y-4.3514
X5.5047Y-4.6414
X5.524Y-4.0398
X5.5476Y-5.113
X5.5516Y-4.1626
X5.5917Y-4.0424
X5.626Y-4.898
X5.652Y-4.8363
X5.6827Y-5.0913
X5.705Y-3.9701
X5.7213Y-4.6894
X5.7266Y-3.8623
X5.7327Y-4.0012
X5.7345Y-4.141
X5.739Y-4.3854
X5.7409Y-5.0891
X5.7626Y-3.8205
X5.7642Y-4.6122
X5.781Y-5.0883
X5.7878Y-4.4308
X5.7906Y-5.0154
X5.7948Y-4.6219
X5.8004Y-4.4728
X5.8075Y-4.6937
X5.8226Y-4.3959
X5.8279Y-5.0824
X5.852Y-4.8465
X5.8642Y-5.0189
X5.8646Y-3.8894
X5.881Y-4.1883
X5.8818Y-5.0757
X5.9205Y-4.5783
X5.9212Y-4.9733
X5.9346Y-5.0839
X5.9386Y-4.835
X5.946Y-3.9603
X5.9512Y-5.0197
X5.9777Y-5.085
X5.986Y-4.9923
X6.015Y-5.0142
X6.0204Y-4.855
X6.0275Y-4.0269
X6.0295Y-5.0765
X6.0314Y-3.9914
X6.0484Y-4.332
X6.0512Y-5.028
X6.0558Y-4.8198
X6.0578Y-4.4351
X6.0614Y-4.2599
X6.0708Y-5.0034
X6.085Y-4.454
X6.0917Y-4.8265
X6.0956Y-4.0095
X6.0987Y-4.1513
X6.1Y-5.0169
X6.1015Y-4.328
X6.1066Y-3.9603
X6.1139Y-4.7928
X6.1176Y-4.4347
X6.12Y-4.8954
X6.1232Y-5.0792
X6.1361Y-5.0242
X6.144Y-4.4544
X6.1456Y-4.7753
X6.1598Y-4.1627
X6.1629Y-4.902
X6.1759Y-4.8387
X6.1771Y-4.4335
X6.1783Y-4.3233
X6.1784Y-4.7666
X6.1899Y-4.7373
X6.1999Y-4.8981
X6.2039Y-4.4536
X6.2102Y-4.7103
X6.211Y-4.2076
X6.2117Y-5.0812
X6.2299Y-4.3257
X6.231Y-4.9997
X6.2314Y-4.8564
X6.2354Y-4.4351
X6.2558Y-4.2678
X6.2621Y-4.4674
X6.2653Y-5.0233
X6.2692Y-4.7241
X6.2846Y-5.0791
X6.2928Y-4.9997
X6.296Y-4.882
X6.3197Y-4.7665
X6.32Y-4.7135
X6.3204Y-4.3241
X6.3228Y-4.4497
X6.3302Y-5.0052
X6.331Y-4.1847
X6.3358Y-4.8895
X6.3511Y-4.4753
X6.3543Y-4.7036
X6.3637Y-5.0261
X6.3795Y-4.3276
X6.3826Y-4.8922
X6.3846Y-4.7146
X6.3869Y-4.4985
X6.3968Y-4.1635
X6.3999Y-4.9981
X6.4003Y-4.5977
X6.4157Y-4.7068
X6.4176Y-4.895
X6.4393Y-4.3241
X6.4472Y-4.7528
X6.4499Y-4.8875
X6.4547Y-5.0819
X6.4551Y-3.9993
X6.4653Y-5.008
X6.4771Y-4.704
X6.4893Y-5.0304
X6.4917Y-4.5918
X6.4988Y-4.3261
X6.5011Y-4.0272
X6.5133Y-5.0879
X6.5153Y-4.8761
X6.5866Y-4.0193
X6.5925Y-4.5576
X6.6331Y-4.9512
X6.635Y-4.6575
X6.6606Y-5.0717
X6.6641Y-4.7772
X6.6873Y-4.8359
X6.6995Y-4.8064
X6.7031Y-4.8981
X6.7276Y-4.9866
X6.8936Y-4.5076
X6.9509Y-4.5077
X7.0062Y-4.5073
X7.0393Y-4.082
X7.0527Y-4.6257
X7.0543Y-4.6678
X7.096Y-4.6678
X7.0964Y-4.3158
X7.0964Y-4.6257
X7.1016Y-5.0047
X7.1369Y-4.6265
X7.1369Y-4.6646
X7.2972Y-4.9292
X7.2984Y-4.8859
X7.2988Y-4.9828
X7.2988Y-5.0272
X7.3488Y-4.1895
X7.372Y-4.2245
X7.3952Y-4.1895
X7.4008Y-5.0
X7.4255Y-4.6111
X7.4283Y-4.406
X7.4712Y-4.6107
X7.4724Y-4.4068
X7.4984Y-5.0008
X7.5212Y-4.5111
X7.5224Y-4.4056
X7.6802Y-4.6706
T2
X3.888Y-3.858
T3
X6.8397Y-4.6611
T4
X3.2323Y-3.7295
X3.3323Y-3.7295
X3.5728Y-3.7295
X3.6728Y-3.7295
X3.9134Y-3.7295
X4.0134Y-3.7295
X4.2047Y-3.7291
X4.3047Y-3.7291
X5.4575Y-5.0205
X5.5575Y-5.0205
X5.6575Y-5.0205
X6.8083Y-3.9886
X6.8083Y-4.0886
X6.8083Y-4.1886
X6.8083Y-4.2886
X6.8736Y-4.7941
X6.8736Y-4.8941
X6.9539Y-3.9878
X6.9539Y-4.0878
X6.9539Y-4.1878
X6.9539Y-4.2878
T5
X4.8267Y-3.6576
X4.8267Y-3.7576
X4.9267Y-3.6576
X4.9267Y-3.7576
X5.0267Y-3.6576
X5.0267Y-3.7576
X5.1267Y-3.6576
X5.1267Y-3.7576
X5.2267Y-3.6576
X5.2267Y-3.7576
X5.3267Y-3.6576
X5.3267Y-3.7576
X5.4267Y-3.6576
X5.4267Y-3.7576
X5.5267Y-3.6576
X5.5267Y-3.7576
X5.6267Y-3.6576
X5.6267Y-3.7576
X5.7267Y-3.6576
X5.7267Y-3.7576
X5.8267Y-3.6576
X5.8267Y-3.7576
X5.9267Y-3.6576
X5.9267Y-3.7576
X6.0267Y-3.6576
X6.0267Y-3.7576
X6.1267Y-3.6576
X6.1267Y-3.7576
X6.2267Y-3.6576
X6.2267Y-3.7576
X6.3267Y-3.6576
X6.3267Y-3.7576
X6.4267Y-3.6576
X6.4267Y-3.7576
X6.5267Y-3.6576
X6.5267Y-3.7576
X6.6267Y-3.6576
X6.6267Y-3.7576
X6.7267Y-3.6576
X6.7267Y-3.7576
X7.8137Y-4.7957
X7.9121Y-4.7957
X8.0106Y-4.7957
X8.109Y-4.7957
M30
