%TF.GenerationSoftware,KiCad,Pcbnew,8.0.1*%
%TF.CreationDate,2024-05-25T23:06:58+03:00*%
%TF.ProjectId,PiStorm2k_v2.1,50695374-6f72-46d3-926b-5f76322e312e,rev?*%
%TF.SameCoordinates,Original*%
%TF.FileFunction,Soldermask,Bot*%
%TF.FilePolarity,Negative*%
%FSLAX46Y46*%
G04 Gerber Fmt 4.6, Leading zero omitted, Abs format (unit mm)*
G04 Created by KiCad (PCBNEW 8.0.1) date 2024-05-25 23:06:58*
%MOMM*%
%LPD*%
G01*
G04 APERTURE LIST*
%ADD10R,1.700000X1.700000*%
%ADD11O,1.700000X1.700000*%
%ADD12R,1.600000X7.540000*%
%ADD13R,1.600000X7.539998*%
%ADD14R,1.600000X7.539996*%
%ADD15R,1.599998X7.539998*%
%ADD16R,1.599994X7.539994*%
%ADD17R,1.599996X7.539996*%
%ADD18C,1.524000*%
%ADD19R,1.500000X1.000000*%
%ADD20C,2.750000*%
%ADD21R,1.750000X1.750000*%
%ADD22C,1.750000*%
G04 APERTURE END LIST*
D10*
%TO.C,IPL2-0*%
X138620000Y-127520000D03*
D11*
X141160000Y-127520000D03*
X143700000Y-127520000D03*
%TD*%
D10*
%TO.C,PWR*%
X176630000Y-101290000D03*
D11*
X176630000Y-103830000D03*
X176630000Y-106370000D03*
X176630000Y-108910000D03*
%TD*%
D10*
%TO.C,JTAG*%
X172930000Y-101310000D03*
D11*
X172930000Y-103850000D03*
X172930000Y-106390000D03*
X172930000Y-108930000D03*
%TD*%
D10*
%TO.C,H2*%
X90750000Y-94730000D03*
D11*
X93290000Y-94730000D03*
%TD*%
D10*
%TO.C,H4*%
X106800000Y-94720000D03*
D11*
X109340000Y-94720000D03*
%TD*%
D12*
%TO.C,Zorro II / A(B) Co-Processor*%
X190500000Y-134010001D03*
X187960000Y-134010001D03*
X185420000Y-134010001D03*
D13*
X182880000Y-134010000D03*
D12*
X180340000Y-134010001D03*
X177800000Y-134010001D03*
X175260000Y-134010001D03*
X172720000Y-134010001D03*
D13*
X170180000Y-134010000D03*
D14*
X167640000Y-134009999D03*
D12*
X165100000Y-134010001D03*
X162560000Y-134010001D03*
X160020000Y-134010001D03*
X157480000Y-134010001D03*
X154940000Y-134010001D03*
X152400000Y-134010001D03*
X149860000Y-134010001D03*
D13*
X147320000Y-134010000D03*
D12*
X144780000Y-134010001D03*
X142240000Y-134010001D03*
X139700000Y-134010001D03*
X137160000Y-134010001D03*
X134620000Y-134010001D03*
X132080000Y-134010001D03*
X129540000Y-134010001D03*
X127000000Y-134010001D03*
D15*
X124460001Y-134010000D03*
D12*
X121920000Y-134010001D03*
X119380000Y-134010001D03*
X116840000Y-134010001D03*
X114300000Y-134010001D03*
X111760000Y-134010001D03*
D15*
X109220001Y-134010000D03*
D16*
X106680003Y-134009998D03*
D12*
X104140000Y-134010001D03*
X101600000Y-134010001D03*
X99060000Y-134010001D03*
D17*
X96520002Y-134009999D03*
D15*
X93980001Y-134010000D03*
D12*
X91440000Y-134010001D03*
X88900000Y-134010001D03*
X86360000Y-134010001D03*
X83820000Y-134010001D03*
%TD*%
D10*
%TO.C,H3*%
X99400000Y-94730000D03*
D11*
X101940000Y-94730000D03*
%TD*%
D18*
%TO.C,J1*%
X205968290Y-121812040D03*
X203468290Y-121812040D03*
X200968290Y-121812040D03*
X198468290Y-121812040D03*
%TD*%
D10*
%TO.C,BJ*%
X174590000Y-121770000D03*
D11*
X174590000Y-124310000D03*
%TD*%
D10*
%TO.C,H1*%
X82100000Y-94730000D03*
D11*
X84640000Y-94730000D03*
%TD*%
D19*
%TO.C,SJ2*%
X96350000Y-95530000D03*
X96350000Y-94230000D03*
%TD*%
D20*
%TO.C,RPi*%
X117728290Y-45172040D03*
X117728290Y-94172040D03*
X175728290Y-45172040D03*
X175728290Y-94172040D03*
D21*
X122598290Y-92902040D03*
D22*
X122598290Y-95442040D03*
X125138290Y-92902040D03*
X125138290Y-95442040D03*
X127678290Y-92902040D03*
X127678290Y-95442040D03*
X130218290Y-92902040D03*
X130218290Y-95442040D03*
X132758290Y-92902040D03*
X132758290Y-95442040D03*
X135298290Y-92902040D03*
X135298290Y-95442040D03*
X137838290Y-92902040D03*
X137838290Y-95442040D03*
X140378290Y-92902040D03*
X140378290Y-95442040D03*
X142918290Y-92902040D03*
X142918290Y-95442040D03*
X145458290Y-92902040D03*
X145458290Y-95442040D03*
X147998290Y-92902040D03*
X147998290Y-95442040D03*
X150538290Y-92902040D03*
X150538290Y-95442040D03*
X153078290Y-92902040D03*
X153078290Y-95442040D03*
X155618290Y-92902040D03*
X155618290Y-95442040D03*
X158158290Y-92902040D03*
X158158290Y-95442040D03*
X160698290Y-92902040D03*
X160698290Y-95442040D03*
X163238290Y-92902040D03*
X163238290Y-95442040D03*
X165778290Y-92902040D03*
X165778290Y-95442040D03*
X168318290Y-92902040D03*
X168318290Y-95442040D03*
X170858290Y-92902040D03*
X170858290Y-95442040D03*
%TD*%
D19*
%TO.C,SJ1*%
X87700000Y-95530000D03*
X87700000Y-94230000D03*
%TD*%
M02*
